<?xml version="1.0" encoding="UTF-8"?>
<svg width="120px" height="48px" viewBox="0 0 120 48" version="1.1" xmlns="http://www.w3.org/2000/svg" xmlns:xlink="http://www.w3.org/1999/xlink">
    <title>C19ECF02-1C03-4943-964B-4B3EA5A7781B@1x</title>
    <g id="Page-1" stroke="none" stroke-width="1" fill="none" fill-rule="evenodd">
        <g id="Yoco-Landing" transform="translate(-40.000000, -14.000000)">
            <g id="logo-yoco" transform="translate(40.000000, 14.000000)">
                <g id="yoco-logo" transform="translate(0.000066, 0.000000)">
                    <path d="M84.9990621,0 L23.9960276,0 C10.7433931,0 1.42108547e-13,10.7433931 1.42108547e-13,23.9961931 L1.42108547e-13,23.9963586 C1.42108547e-13,37.2489931 10.7433931,47.9923862 23.9960276,47.9923862 L84.9990621,47.9923862 C98.2516966,47.9923862 108.995255,37.2489931 108.995255,23.9963586 L108.995255,23.9961931 C108.995255,10.7433931 98.2516966,0 84.9990621,0" id="Fill-1" fill="#00A9E0"></path>
                    <polygon id="Fill-7" fill="#FEFEFE" points="29.2057655 15.2820579 25.2143172 21.8716303 21.3953379 15.2820579 14.7432 15.2820579 22.0607172 27.8603752 22.0607172 32.8618097 28.1462897 32.8618097 28.1462897 27.8850372 35.8334069 15.2820579"></polygon>
                    <path d="M43.7579421,27.9174621 C41.2544938,27.9174621 39.7611972,26.6937931 39.7611972,24.177269 L39.7611972,24.1542621 C39.7611972,21.5222069 41.2763421,20.2753655 43.7797903,20.2753655 C46.2613903,20.2753655 47.798549,21.4528552 47.798549,24.177269 C47.798549,26.832331 46.2613903,27.9174621 43.7579421,27.9174621 M48.988949,15.9196138 C47.5072386,15.2085517 45.7709628,14.8407724 43.8263007,14.8407724 C39.8441214,14.8407724 36.7648386,16.3363862 35.0515697,19.1314759 C34.2181903,20.5044414 33.7782455,22.1716966 33.7782455,24.1332414 L33.7782455,24.1824 C33.7782455,28.3994483 35.4451697,31.0473931 38.4549352,32.3713655 C39.9829903,33.0334345 41.7426041,33.3522207 43.7797903,33.3522207 C47.8083145,33.3522207 50.8644248,32.0525793 52.5311834,29.3311448 C53.3647283,27.9580138 53.7815007,26.2662621 53.7815007,24.206731 L53.7815007,24.1087448 C53.7815007,20.1613241 51.9987145,17.3905655 48.988949,15.9196138" id="Fill-9" fill="#FEFEFE"></path>
                    <path d="M82.6881269,27.9174621 C80.1845131,27.9174621 78.6913821,26.6937931 78.6913821,24.177269 L78.6913821,24.1542621 C78.6913821,21.5222069 80.2065269,20.2753655 82.7099752,20.2753655 C85.1914097,20.2753655 86.7287338,21.4528552 86.7287338,24.177269 C86.7287338,26.832331 85.1914097,27.9174621 82.6881269,27.9174621 M87.9191338,15.9196138 C86.4374234,15.2085517 84.7009821,14.8407724 82.75632,14.8407724 C78.7743062,14.8407724 75.6950234,16.3363862 73.9817545,19.1314759 C73.1482097,20.5044414 72.7084303,22.1716966 72.7084303,24.1332414 L72.7084303,24.1824 C72.7084303,28.3994483 74.375189,31.0473931 77.38512,32.3713655 C78.9130097,33.0334345 80.6726234,33.3522207 82.7099752,33.3522207 C86.7383338,33.3522207 89.7946097,32.0525793 91.4613683,29.3311448 C92.2947476,27.9580138 92.7116855,26.2662621 92.7116855,24.206731 L92.7116855,24.1087448 C92.7116855,20.1613241 90.9288993,17.3905655 87.9191338,15.9196138" id="Fill-11" fill="#FEFEFE"></path>
                    <path d="M65.0198069,14.8407062 C61.0376276,14.8407062 57.9585103,16.33632 56.2452414,19.1314097 C55.4118621,20.5045407 54.9719172,22.1717959 54.9719172,24.1331752 L54.9719172,24.1823338 C54.9719172,28.3993821 56.6388414,31.0474924 59.6486069,32.3714648 C61.1764966,33.0335338 62.9361103,33.3521545 64.9734621,33.3521545 C67.6164414,33.3521545 69.8370207,32.7888993 71.525131,31.6355752 L71.525131,25.907851 C71.525131,25.907851 68.5274483,27.9173959 65.7792,27.9173959 C63.2757517,27.9173959 61.2857379,26.6938924 61.2857379,24.1773683 L61.2857379,24.1541959 C61.2857379,21.5221407 63.2976,20.2752993 65.8012138,20.2752993 C68.4865655,20.2752993 71.525131,22.2851752 71.525131,22.2851752 L71.525131,16.7214786 C71.1101793,16.4215614 70.6621241,16.15392 70.1824552,15.9195476 C68.7009103,15.2084855 66.964469,14.8407062 65.0198069,14.8407062" id="Fill-13" fill="#FEFEFE"></path>
                </g>
            </g>
        </g>
    </g>
</svg>